<mxfile host="65bd71144e">
    <diagram id="N9pXlfUjVTg2Qc8v_kY9" name="PÃ¡gina-1">
        <mxGraphModel dx="417" dy="457" grid="1" gridSize="10" guides="1" tooltips="1" connect="1" arrows="1" fold="1" page="1" pageScale="1" pageWidth="690" pageHeight="980" math="0" shadow="0">
            <root>
                <mxCell id="0"/>
                <mxCell id="1" parent="0"/>
                <mxCell id="u0AmdbwJr4E4orKqaVpK-3" value="" style="edgeStyle=none;html=1;" edge="1" parent="1" target="u0AmdbwJr4E4orKqaVpK-2">
                    <mxGeometry relative="1" as="geometry">
                        <mxPoint x="170" y="170" as="sourcePoint"/>
                    </mxGeometry>
                </mxCell>
                <mxCell id="u0AmdbwJr4E4orKqaVpK-5" value="" style="edgeStyle=none;html=1;" edge="1" parent="1" source="u0AmdbwJr4E4orKqaVpK-2" target="u0AmdbwJr4E4orKqaVpK-4">
                    <mxGeometry relative="1" as="geometry"/>
                </mxCell>
                <mxCell id="u0AmdbwJr4E4orKqaVpK-2" value="cant_minutos" style="rounded=1;whiteSpace=wrap;html=1;fillColor=#a20025;fontColor=#ffffff;strokeColor=#6F0000;" vertex="1" parent="1">
                    <mxGeometry x="110" y="230" width="120" height="60" as="geometry"/>
                </mxCell>
                <mxCell id="u0AmdbwJr4E4orKqaVpK-4" value="cant_minutos&lt;br&gt;&amp;lt;=3" style="rhombus;whiteSpace=wrap;html=1;fillColor=#a20025;fontColor=#ffffff;strokeColor=#6F0000;" vertex="1" parent="1">
                    <mxGeometry x="110" y="340" width="120" height="100" as="geometry"/>
                </mxCell>
                <mxCell id="u0AmdbwJr4E4orKqaVpK-6" value="300+50 *&amp;nbsp;&lt;br&gt;(cant_minutos-3)" style="rounded=1;whiteSpace=wrap;html=1;fillColor=#a20025;fontColor=#ffffff;strokeColor=#6F0000;" vertex="1" parent="1">
                    <mxGeometry x="20" y="470" width="120" height="60" as="geometry"/>
                </mxCell>
                <mxCell id="u0AmdbwJr4E4orKqaVpK-8" value="valor_llamada=&lt;br&gt;300" style="rounded=1;whiteSpace=wrap;html=1;fillColor=#a20025;fontColor=#ffffff;strokeColor=#6F0000;" vertex="1" parent="1">
                    <mxGeometry x="210" y="470" width="120" height="60" as="geometry"/>
                </mxCell>
                <mxCell id="u0AmdbwJr4E4orKqaVpK-15" value="" style="edgeStyle=none;html=1;" edge="1" parent="1" source="u0AmdbwJr4E4orKqaVpK-10">
                    <mxGeometry relative="1" as="geometry">
                        <mxPoint x="170" y="710" as="targetPoint"/>
                    </mxGeometry>
                </mxCell>
                <mxCell id="u0AmdbwJr4E4orKqaVpK-10" value="valor&lt;br&gt;llamada" style="rounded=1;whiteSpace=wrap;html=1;fillColor=#a20025;fontColor=#ffffff;strokeColor=#6F0000;" vertex="1" parent="1">
                    <mxGeometry x="110" y="590" width="120" height="60" as="geometry"/>
                </mxCell>
                <mxCell id="u0AmdbwJr4E4orKqaVpK-19" value="" style="edgeStyle=segmentEdgeStyle;endArrow=classic;html=1;curved=0;rounded=0;endSize=8;startSize=8;sourcePerimeterSpacing=0;targetPerimeterSpacing=0;entryX=1;entryY=0.75;entryDx=0;entryDy=0;exitX=0.6;exitY=0.983;exitDx=0;exitDy=0;exitPerimeter=0;" edge="1" parent="1" source="u0AmdbwJr4E4orKqaVpK-8" target="u0AmdbwJr4E4orKqaVpK-10">
                    <mxGeometry width="100" relative="1" as="geometry">
                        <mxPoint x="220" y="600" as="sourcePoint"/>
                        <mxPoint x="320" y="640" as="targetPoint"/>
                        <Array as="points">
                            <mxPoint x="280" y="529"/>
                            <mxPoint x="280" y="640"/>
                            <mxPoint x="230" y="640"/>
                        </Array>
                    </mxGeometry>
                </mxCell>
                <mxCell id="u0AmdbwJr4E4orKqaVpK-21" value="" style="edgeStyle=segmentEdgeStyle;endArrow=classic;html=1;curved=0;rounded=0;endSize=8;startSize=8;sourcePerimeterSpacing=0;targetPerimeterSpacing=0;exitX=0.317;exitY=1.05;exitDx=0;exitDy=0;exitPerimeter=0;entryX=0;entryY=0.75;entryDx=0;entryDy=0;" edge="1" parent="1" source="u0AmdbwJr4E4orKqaVpK-6" target="u0AmdbwJr4E4orKqaVpK-10">
                    <mxGeometry width="100" relative="1" as="geometry">
                        <mxPoint x="40" y="630" as="sourcePoint"/>
                        <mxPoint x="140" y="670" as="targetPoint"/>
                        <Array as="points">
                            <mxPoint x="58" y="530"/>
                            <mxPoint x="70" y="530"/>
                            <mxPoint x="70" y="640"/>
                            <mxPoint x="110" y="640"/>
                        </Array>
                    </mxGeometry>
                </mxCell>
                <mxCell id="u0AmdbwJr4E4orKqaVpK-23" value="" style="edgeStyle=segmentEdgeStyle;endArrow=classic;html=1;curved=0;rounded=0;endSize=8;startSize=8;sourcePerimeterSpacing=0;targetPerimeterSpacing=0;entryX=0.575;entryY=-0.083;entryDx=0;entryDy=0;entryPerimeter=0;exitX=0.9;exitY=0.34;exitDx=0;exitDy=0;exitPerimeter=0;" edge="1" parent="1" source="u0AmdbwJr4E4orKqaVpK-4" target="u0AmdbwJr4E4orKqaVpK-8">
                    <mxGeometry width="100" relative="1" as="geometry">
                        <mxPoint x="230" y="380" as="sourcePoint"/>
                        <mxPoint x="330" y="420" as="targetPoint"/>
                        <Array as="points">
                            <mxPoint x="218" y="380"/>
                            <mxPoint x="280" y="380"/>
                        </Array>
                    </mxGeometry>
                </mxCell>
                <mxCell id="u0AmdbwJr4E4orKqaVpK-24" value="" style="edgeStyle=segmentEdgeStyle;endArrow=classic;html=1;curved=0;rounded=0;endSize=8;startSize=8;sourcePerimeterSpacing=0;targetPerimeterSpacing=0;entryX=0.408;entryY=0;entryDx=0;entryDy=0;entryPerimeter=0;exitX=0;exitY=0.5;exitDx=0;exitDy=0;" edge="1" parent="1" source="u0AmdbwJr4E4orKqaVpK-4" target="u0AmdbwJr4E4orKqaVpK-6">
                    <mxGeometry width="100" relative="1" as="geometry">
                        <mxPoint x="70" y="383" as="sourcePoint"/>
                        <mxPoint x="120" y="400" as="targetPoint"/>
                        <Array as="points">
                            <mxPoint x="110" y="383"/>
                            <mxPoint x="70" y="383"/>
                        </Array>
                    </mxGeometry>
                </mxCell>
                <mxCell id="u0AmdbwJr4E4orKqaVpK-26" value="inicio" style="ellipse;whiteSpace=wrap;html=1;fillColor=#a20025;fontColor=#ffffff;strokeColor=#6F0000;" vertex="1" parent="1">
                    <mxGeometry x="105" y="90" width="130" height="80" as="geometry"/>
                </mxCell>
                <mxCell id="u0AmdbwJr4E4orKqaVpK-28" value="fin" style="ellipse;whiteSpace=wrap;html=1;fillColor=#a20025;fontColor=#ffffff;strokeColor=#6F0000;" vertex="1" parent="1">
                    <mxGeometry x="115" y="710" width="110" height="80" as="geometry"/>
                </mxCell>
            </root>
        </mxGraphModel>
    </diagram>
</mxfile>